<?xml version="1.0" encoding="UTF-8"?>
<svg id="Capa_1" data-name="Capa 1" xmlns="http://www.w3.org/2000/svg" viewBox="0 0 721.41 263">
  <defs>
    <style>
      .cls-1 {
        fill: #fff;
      }
    </style>
  </defs>
  <g id="layer1">
    <path id="path5635" class="cls-1" d="M154.43,205.84c-8.2-1.71-16.01-7.26-19.06-13.55-2.49-5.13-3.17-8.99-2.82-16.07,.17-3.49,.45-6.94,.62-7.67,.24-1,.06-.87-.72,.56-2.29,4.12-7.22,7.56-12.83,8.97l-2.45,.61,5.22,13.02c2.87,7.16,5.22,13.09,5.22,13.18s-4.93,.1-10.96,.02l-10.96-.14-5.82-16.49c-3.2-9.07-5.94-16.6-6.09-16.75-.15-.14-1.81,7.34-3.7,16.62l-3.43,16.88h-10.18c-8.44,0-10.18-.13-10.18-.75,0-.41,1.43-7.73,3.17-16.26s3.29-16.1,3.44-16.83c.15-.75-.33-.17-1.11,1.32-1.65,3.18-5.5,7.29-8.4,8.98-4.71,2.74-6.69,3.1-19.03,3.42l-11.63,.3-1.45,7.14c-.8,3.92-1.71,8.38-2.02,9.91l-.57,2.78h-10.28c-5.65,0-10.26-.19-10.25-.4s2.94-14.79,6.52-32.38l6.5-31.98H59.68l3.5,1.66c1.92,.91,4.48,2.54,5.68,3.63,2.9,2.62,5.43,7.85,5.84,12.05l.32,3.28,2.15-10.31,2.15-10.31h20.32c20.18,0,20.34,.01,23.67,1.27,7.15,2.71,11.84,9.25,11.91,16.6l.03,3.66,.9-2.11c1.76-4.14,5.36-9.14,9.03-12.54,6.7-6.2,15.04-9.26,25.26-9.26,13.09,0,22.23,4.95,26.76,14.49,4.17,8.78,4.41,18.09,.77,28.73-2.1,6.13-4.4,9.75-9.29,14.66-4.62,4.64-8.92,7.24-15.33,9.25-4.75,1.49-13.79,1.88-18.91,.81h0Zm15.42-17.35c7.61-5.03,12.16-22.3,7.94-30.04-3.12-5.71-11.55-6.17-16.81-.92-4.19,4.19-7.04,12.37-7.14,20.55-.07,5.92,1.39,9.17,4.96,11,3.31,1.7,7.95,1.45,11.04-.59h0Zm-59.78-20.64c3.73-1.98,5.06-7.3,2.51-10.04-1.28-1.39-1.37-1.4-8.65-1.4h-7.35l-1.13,5.68c-.62,3.12-1.13,6.01-1.13,6.41,0,1.14,13.41,.59,15.75-.64Zm-59.34-.12c2.47-1.17,3.62-3.15,3.62-6.24,0-2.16-.24-2.79-1.45-3.83-1.35-1.17-1.88-1.25-7.91-1.25h-6.45l-1.18,5.43c-.65,2.99-1.18,5.73-1.18,6.08,0,1.04,12.31,.87,14.56-.2h0Zm235.23,38.15c-10.3-2.01-16.71-6.69-19.61-14.32-1.88-4.94-1.42-9.42,3.16-30.4,2.25-10.32,4.22-19.3,4.38-19.96,.29-1.18,.35-1.19,10.54-1.19,5.64,0,10.25,.18,10.26,.4,0,.22-1.95,9.86-4.33,21.44-4.18,20.28-4.31,21.12-3.57,23.21,1.22,3.45,2.94,4.38,8.11,4.38,3.84,0,4.62-.17,6.5-1.42,1.3-.86,2.57-2.32,3.23-3.7,.82-1.72,9.62-41.91,9.62-43.93,0-.21,4.76-.38,10.57-.38,8.1,0,10.57,.15,10.57,.66,0,1.31-9.48,44.59-10.22,46.69-3.28,9.25-9.81,15.35-19.15,17.92-4.33,1.19-15.33,1.51-20.06,.59h0Zm66.41-.04c-14.18-3.23-23.08-15.49-22.08-30.44,.67-9.92,4.97-20.25,11.18-26.83,6.19-6.56,12.41-9.56,22.07-10.63,12.62-1.41,24.65,3.02,29.5,10.86,.61,.98,1.28,1.79,1.5,1.79s.84-2.38,1.37-5.29l.97-5.29h55.47l-.29,1.45c-.16,.8-.46,2.41-.68,3.57l-.39,2.11,2.41-2.22c5.16-4.75,12.47-7.11,22.07-7.14,7.14-.03,11.95,.96,16.48,3.37,5.67,3.02,9.17,8.36,9.79,14.92l.33,3.49h-19l-.76-2.51c-.96-3.18-3.02-4.36-7.63-4.36-3.88,0-6.66,1.25-7.37,3.33-1.04,3.01,.88,4.2,11.2,6.94,8.2,2.18,12.25,4.1,15.31,7.26,3.55,3.66,4.65,6.65,4.64,12.6-.01,4.33-.21,5.44-1.44,8.09-1.93,4.14-6.96,9.3-11.12,11.4-12.02,6.05-30.74,4.72-39.37-2.81-4.03-3.52-6.45-9.12-6.47-14.97v-2.79l10.44,.14,10.44,.14,.15,1.85c.39,4.71,2.51,6.45,7.98,6.54,3.97,.07,6.51-.79,7.7-2.62,2.09-3.19,.33-5.39-5.74-7.15-2.06-.6-5.41-1.57-7.43-2.16-7.09-2.05-12.3-5.63-14.55-9.98-1.31-2.54-2.22-7.85-1.8-10.49l.34-2.16h-7.44c-4.09,0-7.55,.19-7.69,.41-.14,.22-2.47,11.29-5.19,24.58l-4.93,24.17h-10.44c-8.01,0-10.44-.15-10.42-.66,.01-.36,2.23-11.31,4.92-24.33s4.79-23.78,4.65-23.92c-.14-.14-3.45-.25-7.35-.25h-7.11l.13,3.3c.07,1.82,.1,3.96,.05,4.76l-.08,1.45h-20.09v-2.83c0-3.12-1.22-5.47-3.87-7.43-1.19-.88-2.25-1.1-5.29-1.09-7.24,.03-11.11,3.57-14.42,13.2-1.23,3.57-1.46,5.14-1.5,10.04-.03,5.19,.1,6.05,1.22,8,1.76,3.08,4.61,4.56,8.75,4.56,5.87,0,8.92-2.07,11.45-7.78l1.06-2.4h10.55c5.8,0,10.55,.1,10.55,.21,0,.68-3.26,8.04-4.5,10.19-2.18,3.74-8.94,10.22-12.77,12.23-6.78,3.55-18.38,5.17-25.47,3.55h0Zm-156.36-2.02c.4-1.58,13.03-63.21,13.03-63.56,0-.14,7.81-.25,17.36-.25,15.63,0,17.77,.11,21.49,1.06,12.97,3.31,19.52,13.87,17.74,28.55-1.78,14.63-8.96,25.99-19.63,31.07-8.07,3.85-8.96,3.97-30.82,4.21l-19.5,.21,.32-1.3h0Zm39.74-17.31c5.47-2.81,8.95-10.55,8.97-19.89,0-4.62-.15-5.59-1.08-6.84-2.42-3.25-3.47-3.63-10.45-3.81l-6.44-.17-3.13,15.5c-1.72,8.53-3.25,15.82-3.38,16.22-.21,.59,.96,.68,6.32,.53,5.79-.16,6.88-.35,9.2-1.54h0Zm286.9,17.34c1.3-2.01,23.73-41.16,24.03-41.95,.24-.62-1.86-.74-13.25-.74-7.44,0-13.54-.1-13.54-.22s5.47-9.7,12.15-21.28l12.15-21.06,13.88-.26,13.88-.26,17.5-30.4,17.5-30.4,14.35-.14c7.89-.08,14.35-.04,14.35,.08,0,.33-34.89,60.74-35.53,61.51-.41,.5-3.91,.66-14.15,.66h-13.6l-4.8,8.33-4.8,8.33,13.65,.26,13.65,.26-12.04,20.88-12.04,20.88,70.82,.13c43.49,.08,70.75,.32,70.65,.63-.1,.27-3.38,6.22-7.31,13.22l-7.13,12.72h-171.15l.77-1.19h0Zm74.05-43.08c.12-.22,3.37-5.81,7.22-12.42l6.99-12.03h50.92l6.61,11.18c3.64,6.15,6.91,11.74,7.28,12.42l.68,1.24h-39.96c-21.98,0-39.86-.18-39.74-.4h0Zm97.6-3.38c-1.25-2.14-4.48-7.66-7.19-12.26-2.71-4.6-4.93-8.47-4.93-8.59s6.54-.22,14.54-.22,14.54,.1,14.54,.22c0,.43-13.35,23.31-14.01,24.02-.56,.59-1.07,.04-2.94-3.17Zm-357.33-25.16c0-.22,8.74-14.97,19.43-32.78l19.43-32.39h9.88c8.95,0,9.91,.08,10.16,.93,.15,.51,2.7,13.89,5.66,29.74,2.96,15.85,5.54,28.99,5.73,29.2,.19,.22,3.03-12.75,6.31-28.81s6.08-29.62,6.23-30.13c.24-.84,1.21-.93,10.54-.93,5.65,0,10.27,.18,10.27,.4,0,.38-12.37,61.44-12.96,63.97l-.27,1.19h-39.02l-.93-5.29-.93-5.29h-11.14l-11.14,.02-2.91,5.27-2.91,5.27h-10.71c-5.89,.01-10.71-.16-10.71-.38h0Zm47.39-25.91c-.14-.51-.79-4.2-1.44-8.19s-1.32-7.26-1.49-7.26c-.27,.01-8.44,14.52-8.95,15.9-.1,.26,2.59,.47,5.98,.47,5.61,0,6.14-.08,5.89-.93h0Zm49.88,25.64c0-.55,12.07-59.88,12.96-63.7l.27-1.19h18.1c19.04,.02,22.54,.34,27.56,2.57,3.35,1.48,6.93,4.99,8.63,8.46,1.28,2.62,1.46,3.57,1.43,7.74-.03,3.61-.33,5.49-1.23,7.8-2.28,5.83-8.36,10.87-14.26,11.82-1.2,.19-2.18,.5-2.18,.69s2.26,5.98,5.02,12.88c2.76,6.9,5.02,12.79,5.02,13.08,0,.36-3.71,.49-10.9,.4l-10.9-.14-5.88-16.77c-3.24-9.22-6.03-16.59-6.22-16.39-.19,.21-1.84,7.81-3.7,16.9l-3.36,16.52h-10.19c-7.83,0-10.19-.15-10.19-.67h.01Zm43.89-36.88c3.93-2,5.03-7.2,2.13-10.1l-1.56-1.56-7.03,.15-7.03,.15-1.17,5.55c-.64,3.05-1.18,5.85-1.19,6.21-.02,.5,1.7,.66,6.87,.66,5.86,0,7.21-.16,8.98-1.06h0Zm142.72,24c0-.62,15.02-26.63,15.38-26.63,.32,0,15.81,26.19,15.81,26.74,0,.12-7.02,.22-15.6,.22s-15.6-.15-15.6-.33Z"/>
  </g>
</svg>