<svg id="Grupo_13" data-name="Grupo 13" xmlns="http://www.w3.org/2000/svg" xmlns:xlink="http://www.w3.org/1999/xlink" width="149.445" height="88.057" viewBox="0 0 149.445 88.057">
  <defs>
    <clipPath id="clip-path">
      <rect id="Rectángulo_100" data-name="Rectángulo 100" width="149.445" height="88.057" fill="none"/>
    </clipPath>
  </defs>
  <g id="Grupo_12" data-name="Grupo 12" clip-path="url(#clip-path)">
    <path id="Trazado_29" data-name="Trazado 29" d="M473.439,258.4a4.3,4.3,0,0,0-4.139,4.562c0,2.484,1.462,4.844,4.175,4.844,2.783,0,4.245-2.255,4.245-4.809-.018-2.554-1.6-4.6-4.28-4.6" transform="translate(-386.633 -212.883)" fill="#8dc63f"/>
    <path id="Trazado_30" data-name="Trazado 30" d="M305.24,258.4a4.3,4.3,0,0,0-4.139,4.562c0,2.484,1.462,4.844,4.157,4.844,2.783,0,4.245-2.255,4.245-4.809s-1.585-4.6-4.263-4.6" transform="translate(-248.062 -212.883)" fill="#8dc63f"/>
    <path id="Trazado_31" data-name="Trazado 31" d="M552.275,258.4a4.045,4.045,0,0,0-3.875,3.329h7.592a3.836,3.836,0,0,0-3.717-3.329" transform="translate(-451.8 -212.883)" fill="#8dc63f"/>
    <path id="Trazado_32" data-name="Trazado 32" d="M107.439,258.4a4.3,4.3,0,0,0-4.139,4.562c0,2.484,1.462,4.844,4.157,4.844,2.783,0,4.245-2.255,4.245-4.809s-1.585-4.6-4.263-4.6" transform="translate(-85.104 -212.883)" fill="#8dc63f"/>
    <path id="Trazado_33" data-name="Trazado 33" d="M224.209,258.4a4.707,4.707,0,1,0,4.509,4.7,4.508,4.508,0,0,0-4.509-4.7" transform="translate(-181 -212.883)" fill="#8dc63f"/>
    <path id="Trazado_34" data-name="Trazado 34" d="M387.44,258.4a4.3,4.3,0,0,0-4.139,4.562c0,2.484,1.462,4.844,4.157,4.844,2.783,0,4.245-2.255,4.245-4.809.018-2.554-1.585-4.6-4.263-4.6" transform="translate(-315.782 -212.883)" fill="#8dc63f"/>
    <path id="Trazado_35" data-name="Trazado 35" d="M626.439,258.4a4.3,4.3,0,0,0-4.139,4.562c0,2.484,1.462,4.844,4.157,4.844,2.783,0,4.245-2.255,4.245-4.809s-1.585-4.6-4.263-4.6" transform="translate(-512.683 -212.883)" fill="#8dc63f"/>
    <path id="Trazado_36" data-name="Trazado 36" d="M136.485,40.3c-15.378,0-26.51,11.591-30.738,16.435-.528.581-1,1.127-1.392,1.638a5.1,5.1,0,0,1-7.345.7c-4.738-3.963-11.432-11.4-25.559-11.4a33.125,33.125,0,1,0-.018,66.249h65.58a36.817,36.817,0,0,0-.528-73.63M54.294,90.132a5.336,5.336,0,0,1-4.386-2.114h-.053V89.78H47.689V67.462h2.167V78.877h.053a5.439,5.439,0,0,1,4.351-2.167c3.787,0,6.112,3.1,6.112,6.711,0,3.541-2.343,6.711-6.077,6.711M66.325,78.718c-2.378,0-2.484,3.047-2.484,4.7V89.78H61.675V77.08h2.167v1.374h.053c.757-1,1.409-1.726,2.818-1.726a3.859,3.859,0,0,1,1.955.6L67.646,79.3a2.149,2.149,0,0,0-1.321-.581m8.438,11.414a6.7,6.7,0,1,1,6.676-6.676,6.638,6.638,0,0,1-6.676,6.676m20.292-.352H92.888V88.019h-.053a5.334,5.334,0,0,1-4.386,2.114c-3.734,0-6.077-3.171-6.077-6.676,0-3.629,2.29-6.729,6.112-6.729a5.49,5.49,0,0,1,4.351,2.167h.053V77.08h2.167Zm14.479,0h-2.167V88.019h-.053a5.433,5.433,0,0,1-4.386,2.114c-3.734,0-6.077-3.171-6.077-6.676,0-3.629,2.29-6.729,6.112-6.729a5.465,5.465,0,0,1,4.351,2.167h.053V67.462h2.167Zm9.23.352a5.336,5.336,0,0,1-4.386-2.114h-.053V89.78h-2.167V67.462h2.167V78.877h.053a5.439,5.439,0,0,1,4.351-2.167c3.787,0,6.112,3.1,6.112,6.711,0,3.541-2.36,6.711-6.077,6.711m13.458-2.008A4.334,4.334,0,0,0,136.08,85.5l1.832,1.057a6.406,6.406,0,0,1-5.866,3.558c-3.787,0-6.218-2.889-6.218-6.535,0-3.752,2.184-6.87,6.165-6.87,4.087,0,6.253,3.382,6.024,7.169H128.03a4.159,4.159,0,0,0,4.192,4.245m19.412,1.656h-2.167V88.019h-.053a5.334,5.334,0,0,1-4.386,2.114c-3.734,0-6.077-3.171-6.077-6.676,0-3.629,2.29-6.729,6.112-6.729a5.49,5.49,0,0,1,4.351,2.167h.053V77.08h2.167Zm10.675,0V82.611c0-2.061-.159-3.893-2.677-3.893-2.977,0-3.171,2.766-3.171,5.02v6.024h-2.167v-12.7h2.167v1.533h.053a4.278,4.278,0,0,1,3.629-1.885c3.523,0,4.333,2.537,4.333,5.513v7.539h-2.167Z" transform="translate(-31.554 -33.201)" fill="#8dc63f"/>
    <path id="Trazado_37" data-name="Trazado 37" d="M105.407,0C94.75,0,85.432,4.774,74.969,13.017A11.641,11.641,0,0,1,62.6,14C56.35,10.481,50.431,7.345,40.356,7.345a40.356,40.356,0,1,0,0,80.711h65.739l.035-.018A44.022,44.022,0,0,0,105.407,0m28.483,72.15a39.744,39.744,0,0,1-27.831,11.908H40.232a36.34,36.34,0,0,1,.123-72.679c13.775,0,21.155,6.482,26.035,10.763l1.621,1.409a1.869,1.869,0,0,0,1.427.458,1.924,1.924,0,0,0,1.321-.722c.405-.528.916-1.11,1.5-1.744C82.244,10.076,93.711,4.016,105.407,4.016A40.021,40.021,0,0,1,133.891,72.15" transform="translate(0 0)" fill="#8dc63f"/>
  </g>
</svg>
