<svg xmlns="http://www.w3.org/2000/svg" width="106.822" height="106.822" viewBox="0 0 106.822 106.822">
  <g id="Grupo_9" data-name="Grupo 9" transform="translate(-959.288 -1292.369)">
    <path id="Trazado_74" d="M1833.285,1509.106l-32.856,15.862a4.147,4.147,0,0,1-3.4,0l-32.856-15.862a1.2,1.2,0,0,1,0-2.266l8.093-3.884,23.63,11.33a6.913,6.913,0,0,0,5.665,0l23.63-11.33,8.093,3.884a1.2,1.2,0,0,1,0,2.266m-28.162-21.526a8.5,8.5,0,0,1-12.139,0h0a8.5,8.5,0,0,1,0-12.139h0a8.5,8.5,0,0,1,12.139,0,8.8,8.8,0,0,1,0,12.139h0m12.463,16.023-17.156,8.254a4.146,4.146,0,0,1-3.4,0L1764.175,1496a1.084,1.084,0,0,1-.647-1.133,1.362,1.362,0,0,1,.647-1.133l8.093-3.885,23.63,11.33a6.17,6.17,0,0,0,5.5,0l9.226-4.37Zm3.885-3.4-5.827-5.827,9.549-4.532,8.093,3.885a1.084,1.084,0,0,1,.647,1.133,1.362,1.362,0,0,1-.647,1.133l-11.653,5.5a1,1,0,0,0-.162-1.295m-57.3-19.422,32.856-15.861a4.146,4.146,0,0,1,3.4,0l32.856,15.861a1.2,1.2,0,0,1,0,2.266l-19.584,9.387-2.59-2.59a1.189,1.189,0,0,0-.971-.324,1.237,1.237,0,0,0-.809.324l-1.457-1.457a11.309,11.309,0,1,0-16.833.971h0a11.366,11.366,0,0,0,15.052.809l1.457,1.457a1.27,1.27,0,0,0,0,1.78l1.295,1.295-8.416,4.046a4.147,4.147,0,0,1-3.4,0l-32.856-15.862a1.217,1.217,0,0,1-.809-1.133c.161-.324.323-.809.809-.971m34.636-38.682a53.464,53.464,0,0,0-53.411,53.411h0a53.411,53.411,0,1,0,53.411-53.411" transform="translate(-786.112 -149.731)" fill="#007ccd"/>
  </g>
</svg>
