<svg xmlns="http://www.w3.org/2000/svg" width="107.469" height="107.631" viewBox="0 0 107.469 107.631">
  <g id="Grupo_28" data-name="Grupo 28" transform="translate(-1023.502 -897)">
    <g id="Grupo_24" data-name="Grupo 24">
      <g id="Grupo_22" transform="translate(1023.502 897)">
        <path id="Trazado_3" d="M-413.813,430l-9.387,5.179h18.613Z" transform="translate(466.415 -402.323)" fill="#18a3ac"/>
        <path id="Trazado_4" d="M-342.431,466.8a53.948,53.948,0,0,0-53.735-53.9h0A53.705,53.705,0,0,0-449.9,466.635h0a54.04,54.04,0,0,0,35.445,50.659l2.1-43.376h-1.78a1.451,1.451,0,0,1-1.457-1.457V462.75a1.451,1.451,0,0,1,1.457-1.457h5.179V448.669h-3.561a1.555,1.555,0,0,1-1.457-1.133,1.539,1.539,0,0,1,.647-1.619l15.052-8.254a1.214,1.214,0,0,1,1.457,0l14.89,8.416a1.326,1.326,0,0,1,.647,1.619,1.555,1.555,0,0,1-1.457,1.133h-3.561v12.624h5.179a1.451,1.451,0,0,1,1.457,1.457v9.711a1.451,1.451,0,0,1-1.457,1.457h-1.78l1.78,44.185A53.8,53.8,0,0,0-342.431,466.8" transform="translate(449.9 -412.9)" fill="#18a3ac"/>
        <path id="Trazado_5" d="M-398.138,482.4l-.162-3.561h-.324l-27.191-6.636-.486,9.387a55.248,55.248,0,0,0,15.376,2.266,56.327,56.327,0,0,0,12.786-1.457" transform="translate(464.497 -376.222)" fill="#18a3ac"/>
        <path id="Trazado_6" d="M-425.114,458.2l-.486,9.711,26.382,6.474-.486-9.873Z" transform="translate(464.93 -384.881)" fill="#18a3ac"/>
        <rect id="Rectángulo_6" width="6.798" height="30.428" transform="translate(37.186 58.197) rotate(-89.767)" fill="#18a3ac"/>
        <path id="Trazado_7" d="M-422.7,450.7l20.717,5.017-.162-5.017Z" transform="translate(466.724 -389.52)" fill="#18a3ac"/>
        <path id="Trazado_8" d="M-415.74,445.831v-4.856l-6.96-3.075v7.931Z" transform="translate(466.724 -397.437)" fill="#18a3ac"/>
      </g>
    </g>
    <rect id="Rectángulo_106" data-name="Rectángulo 106" width="9" height="11" transform="translate(1066 936)" fill="#fff"/>
  </g>
</svg>
