<svg id="Grupo_20" data-name="Grupo 20" xmlns="http://www.w3.org/2000/svg" xmlns:xlink="http://www.w3.org/1999/xlink" width="207.502" height="61.87" viewBox="0 0 207.502 61.87">
  <defs>
    <clipPath id="clip-path">
      <rect id="Rectángulo_103" data-name="Rectángulo 103" width="207.502" height="61.87" fill="none"/>
    </clipPath>
  </defs>
  <g id="Grupo_19" data-name="Grupo 19" clip-path="url(#clip-path)">
    <path id="Trazado_41" data-name="Trazado 41" d="M418.053,58.966h1.107c.1-.069,1.556-.242,1.971-.45a6.091,6.091,0,0,0,1.522-.9,5.707,5.707,0,0,0,1.625-3.355c.311-1.28.069-7.885.1-9.718l3.8-3.355c.45.277,6.19,8.508,6.917,9.614,1.038,1.591,2.283,3.355,3.424,4.842a8.035,8.035,0,0,0,1.971,2.213,5.233,5.233,0,0,0,1.383.726c.346.1,1.66.346,1.729.38h1.107a17.549,17.549,0,0,0,1.971-.692,4.132,4.132,0,0,0,1.453-1.21,5.822,5.822,0,0,0,1.418-3.735c0-2.455-1.522-4.081-2.628-5.533-1.176-1.591-2.283-3.078-3.493-4.669-2.283-3.043-4.807-6.19-6.882-9.3.761-.519,4.358-4.53,5.257-5.533,1.072-1.176,4.773-4.323,4.773-6.018V20.509c0-1.868-2.87-4.288-5.049-4.288h-.553c-2.386,0-3.77,1.9-4.98,3.182-1.314,1.383-2.628,2.8-3.839,4.288-1.141,1.349-2.87,2.87-3.873,4.254a47.13,47.13,0,0,1-3.908,4.254V13.9a63.3,63.3,0,0,0-.208-8.957A4.9,4.9,0,0,0,419.09.9h-.9C414.8.9,412.9,3.286,412.9,6.745V53.329a5.754,5.754,0,0,0,1.418,4.012,4.376,4.376,0,0,0,1.66,1.107c.38.173,2.04.484,2.075.519" transform="translate(-270.104 -0.589)" fill="#1e2117" fill-rule="evenodd"/>
    <path id="Trazado_42" data-name="Trazado 42" d="M291.642,87.945h1.418c.035,0,2.006-.415,2.317-.519a4.5,4.5,0,0,0,1.695-1.28c1.072-1.625,1.038-2.317,1.038-4.876V69.478c0-4.634-.415-7.366,1.245-10.548a8.8,8.8,0,0,1,7.574-4.323h.1c3.7,0,5.568,2.04,6.467,4.842.692,2.11.346,8.093.346,11V81.789a7.018,7.018,0,0,0,1.176,4.427,4.906,4.906,0,0,0,1.66,1.21c.242.1,2.283.519,2.317.519h1.418c.207-.138,1.556-.277,2.179-.588a4.08,4.08,0,0,0,1.487-1.141A6.2,6.2,0,0,0,325.257,82V58.757a15.055,15.055,0,0,0-3.873-9.787,14.057,14.057,0,0,0-9.753-3.77h-1.314a15.405,15.405,0,0,0-7.92,2.213,14.569,14.569,0,0,0-2.836,2.213c-.519.519-2.11,2.386-2.455,2.628,0-3.77-.9-7.055-4.5-7.055H291.3c-2.732,0-4.5,2.317-4.5,5.049V83.173a5.683,5.683,0,0,0,1.487,3.389,5.2,5.2,0,0,0,1.522.9c.38.173,1.591.346,1.833.484" transform="translate(-187.614 -29.568)" fill="#1e2117" fill-rule="evenodd"/>
    <path id="Trazado_43" data-name="Trazado 43" d="M190.988,58.966H192.3c.138-.1,1.522-.311,2.04-.588a3.887,3.887,0,0,0,1.556-1.107,6.012,6.012,0,0,0,1.349-3.943V6.745c0-3.182-1.833-5.845-4.842-5.845h-1.314c-3.528,0-5.291,2.455-5.291,6.052V53.225a6.276,6.276,0,0,0,1.418,4.115,5.167,5.167,0,0,0,1.66,1.107c.553.277,1.937.38,2.11.519" transform="translate(-121.544 -0.589)" fill="#1e2117" fill-rule="evenodd"/>
    <path id="Trazado_44" data-name="Trazado 44" d="M242.353,87.945h1.418c.069-.035,1.695-.38,2.11-.553a4.111,4.111,0,0,0,1.522-1.141,5.963,5.963,0,0,0,1.245-4.046V50.8c0-3.216-1.729-5.6-4.842-5.6h-1.764c-3.735,0-4.842,2.974-4.842,6.813V81.2c0,2.144.208,3.6,1.107,4.842a4.75,4.75,0,0,0,1.66,1.314c.38.173,2.386.588,2.386.588" transform="translate(-155.168 -29.568)" fill="#1e2117" fill-rule="evenodd"/>
    <path id="Trazado_45" data-name="Trazado 45" d="M49.42.9H8.473A9.118,9.118,0,0,0,2.767,3.148,7.8,7.8,0,0,0,1.038,5.361C.553,6.157.242,7.955,0,8.3V51.6c.138.208.588,2.075.9,2.732A8.239,8.239,0,0,0,2.49,56.476a10.174,10.174,0,0,0,2.075,1.556c.726.38,2.421.726,2.8.968h43.16a26.615,26.615,0,0,0,3.043-1.038,11.146,11.146,0,0,0,2.213-1.729A8.487,8.487,0,0,0,58,50.424V9.062C58,4.67,53.916.9,49.42.9M32.82,44.752c0,1.729-1.591,2.767-3.424,2.767h-.1c-4.5,0-3.285-5.672-3.285-10.237,0-2.144.1-4.634-.1-6.605-.173-1.487-1.868-3.32-3.389-3.32h-1a5.113,5.113,0,0,0-4.358,2.8c-.934,1.8-.692,3.735-.692,6.363V43.68c0,2.455-.8,3.839-3.182,3.839h-.45c-2.006,0-3.182-1.383-3.182-3.424V16.013c0-1.868,1.038-3.528,2.767-3.528h1.245a2.885,2.885,0,0,1,2.732,2.974v9.822A27.516,27.516,0,0,1,19.3,22.9a8.751,8.751,0,0,1,4.15-1.141h1.764A7.834,7.834,0,0,1,32.82,29.57ZM52.083,25.593a3.087,3.087,0,0,1-1.764,2.525c-1.625.623-2.594.035-3.873.415-1.971.553-3.113,2.87-3.147,5.326-.035,2.7-.1,5.637-.1,8.473,0,3.113-.069,5.188-3.285,5.188h-.346c-2.144,0-3.182-1.349-3.182-3.528V24.832c0-1.522,1.072-3.078,2.421-3.078h1.21a2.486,2.486,0,0,1,2.317,1.868,13.717,13.717,0,0,1,.208,3.873c.519-.588.968-2.732,1.971-3.873a4.8,4.8,0,0,1,3.873-1.971,3.574,3.574,0,0,1,3.735,3.285v.657Z" transform="translate(0 -0.589)" fill="#73b848" fill-rule="evenodd"/>
    <path id="Trazado_46" data-name="Trazado 46" d="M243.62,0h-2.075c-.311.208-1.349.415-1.9.726a5.875,5.875,0,0,0-1.522,1.21A6.041,6.041,0,0,0,236.6,5.914a5.861,5.861,0,0,0,5.6,5.845h.761a5.823,5.823,0,0,0,5.5-5.741V5.672a5.792,5.792,0,0,0-1.522-3.77A5.3,5.3,0,0,0,245.488.726C245.108.553,243.793.1,243.62,0" transform="translate(-154.775)" fill="#1e2117" fill-rule="evenodd"/>
    <path id="Trazado_47" data-name="Trazado 47" d="M593.72,133.574V118.7c-.38-.45-.588-1-1.556-1a1.634,1.634,0,0,0-1.764,1.418v14.006c0,.9.9,1.418,1.868,1.418s1.072-.553,1.452-.968" transform="translate(-386.218 -76.995)" fill="#1e2117" fill-rule="evenodd"/>
    <path id="Trazado_48" data-name="Trazado 48" d="M525.5,152.132v.9a3.373,3.373,0,0,0,3.182,2.974,3.263,3.263,0,0,0,3.285-3.182v-.346a3.223,3.223,0,0,0-3.182-3.078h-.1c-1.487,0-3.182,1.418-3.182,2.732" transform="translate(-343.763 -97.732)" fill="#1e2117" fill-rule="evenodd"/>
    <path id="Trazado_49" data-name="Trazado 49" d="M565.383,132.775c-.519-.761-2.006-2.075-3.113-2.075H560.4c-1.21,0-1.971,1.141-2.525,1.764,0-.9-.38-1.764-1.21-1.764h-.761c-.726,0-1.107.692-1.107,1.418v13.488c0,.968.415,1.764,1.314,1.764h.761c1.868,0,1.21-4.115,1.21-5.948.934.692,1.072,1.66,3.078,1.66h.45c2.974,0,4.842-2.8,4.842-5.845v-.45a6.719,6.719,0,0,0-1.072-4.012m-4.634,7.643H560.4c-1.522,0-2.421-1.66-2.421-3.182v-.657c0-1.556.9-3.32,2.317-3.32h.346c1.764,0,2.525,1.9,2.525,3.735,0,1.625-.83,3.424-2.421,3.424" transform="translate(-362.93 -85.499)" fill="#1e2117" fill-rule="evenodd"/>
  </g>
</svg>
