<svg xmlns="http://www.w3.org/2000/svg" width="107.631" height="107.631" viewBox="0 0 107.631 107.631">
  <g id="Grupo_23" data-name="Grupo 23" transform="translate(-547.902 -898.403)">
    <g id="Grupo_20" transform="translate(547.902 898.403)">
      <path id="Trazado_15" d="M-305.728,460.5c-2.1.162-2.428-.809-2.428-2.59,0-1.942.809-2.59,2.59-2.266,2.1-.486,2.428.809,2.428,2.59,0,1.942-.809,2.266-2.59,2.266m0-21.526c1.78,0,2.751.486,2.428,2.428.324,1.78-.324,2.428-2.266,2.59-1.942,0-2.59-.647-2.59-2.59s.809-2.428,2.428-2.428m-8.254,21.526h-33.5c-1.78,0-2.428-.647-2.428-2.428s.485-2.59,2.428-2.428c5.665.162,11.491,0,17.156,0h16.347c1.942,0,2.428.647,2.428,2.428s-.486,2.428-2.428,2.428m-33.341-21.526c1.78,0,2.751.647,2.266,2.428.324,1.942-.486,2.59-2.266,2.59-2.1,0-2.59-.647-2.59-2.59,0-2.1.809-2.428,2.59-2.428M-355.74,460.5c-1.942,0-2.59-.647-2.59-2.59s.809-2.428,2.59-2.428,2.752.486,2.266,2.266c.486,2.1-.324,2.751-2.266,2.751m.162-13.272c1.942,0,2.59.809,2.266,2.59.324,1.942-.647,2.428-2.428,2.428s-2.428-.485-2.428-2.428c-.162-2.1.647-2.59,2.59-2.59m-.324-8.254c1.78-.324,2.59.162,2.59,2.266,0,1.619-.162,2.751-2.266,2.59-1.78,0-2.751-.324-2.751-2.428.162-1.618.486-2.751,2.428-2.428m8.74,8.254c2.1-.162,2.1,1.133,2.266,2.59.162,2.266-1.133,2.266-2.751,2.266-2.1,0-2.428-.971-2.1-2.59-.486-2.1.971-2.1,2.59-2.266m8.093-8.254c1.78,0,2.59.647,2.266,2.428.324,1.942-.486,2.428-2.266,2.428s-2.59-.324-2.59-2.266c.162-1.942.647-2.751,2.59-2.59m0,13.272c-1.78,0-2.428-.485-2.428-2.428,0-1.618.324-2.59,2.266-2.59,1.78,0,3.075.162,2.59,2.428.324,1.942-.486,2.59-2.428,2.59m8.416-5.017c1.942,0,2.59.647,2.266,2.59.324,1.942-.486,2.428-2.428,2.428-1.78,0-2.59-.485-2.59-2.428s.809-2.59,2.751-2.59m0-8.254c1.78,0,2.751.486,2.428,2.428.324,1.78-.324,2.59-2.266,2.59-1.619,0-2.59-.162-2.59-2.266-.162-1.942.324-2.913,2.428-2.751m8.416,0c1.942,0,2.428.809,2.1,2.428.324,2.1-.809,2.428-2.428,2.428-1.942,0-2.428-.647-2.428-2.428.162-2.1.971-2.428,2.751-2.428m-.324,8.254c1.942,0,2.751.486,2.59,2.59,0,1.78-.647,2.428-2.428,2.428s-2.751-.324-2.428-2.428c-.162-1.78.324-2.59,2.266-2.59m8.74,0c1.942,0,2.428.809,2.266,2.59.324,1.942-.486,2.428-2.266,2.428-1.942,0-2.59-.485-2.59-2.59-.162-2.1.809-2.428,2.59-2.428m-.162-8.254c1.78,0,2.751.486,2.428,2.428.324,1.78-.324,2.59-2.266,2.59-1.618,0-2.59-.324-2.59-2.266,0-2.1.324-2.913,2.428-2.751m8.254,13.272c-1.78,0-2.428-.647-2.428-2.428,0-1.618.324-2.59,2.266-2.59,1.78,0,3.075.162,2.59,2.428.486,2.1-.486,2.59-2.428,2.59m6.96-14.567c0-2.266-.647-3.075-2.913-3.075h-58.1c-2.266,0-2.913.809-2.913,2.913.162,7.931,0,15.861,0,23.792,0,3.561,0,3.561,3.561,3.561h57.134c2.428,0,3.237-.809,3.075-3.237,0-7.931,0-16.023.162-23.954" transform="translate(383.579 -399.478)" fill="#0c3866"/>
      <path id="Trazado_16" d="M-287.876,477.155c0,3.4-.809,4.208-4.208,4.208h-61.18c-3.723,0-4.37-.647-4.37-4.37V449.155c0-3.4.809-4.208,4.208-4.208h61.18c3.723,0,4.37.647,4.37,4.37v27.838m-22.5,14.4c-3.561,3.075-7.283,6.15-10.844,9.387a2.25,2.25,0,0,1-3.075.162.159.159,0,0,1-.162-.162c-3.561-3.075-7.283-6.15-10.682-9.387-.486-.486-.486-1.618-.647-2.428.809.162,1.942-.162,2.59.324,2.913,2.428,5.827,4.856,8.578,7.283a2.365,2.365,0,0,0,3.4.486l.486-.486c2.751-2.59,5.665-5.017,8.578-7.445a3.56,3.56,0,0,1,2.1-.647c.324,0,.647.647.971,1.133a5.072,5.072,0,0,1-1.295,1.78m-11.491-78.66A53.705,53.705,0,0,0-375.6,466.635a53.844,53.844,0,0,0,53.735,53.9h0a53.878,53.878,0,0,0,53.9-53.9h0a53.844,53.844,0,0,0-53.9-53.735" transform="translate(375.6 -412.9)" fill="#0c3866"/>
    </g>
  </g>
</svg>
