<svg id="Layer_2" data-name="Layer 2" xmlns="http://www.w3.org/2000/svg" width="251.198" height="36.18" viewBox="0 0 251.198 36.18">
  <g id="desktop_-_grid" data-name="desktop - grid" transform="translate(0 0)">
    <path id="Trazado_50" data-name="Trazado 50" d="M0,11.53H3.537V24.32h6.552v3.265H0Z" transform="translate(0 0.499)" fill="#151e28"/>
    <path id="Trazado_51" data-name="Trazado 51" d="M15.5,19.57a9.066,9.066,0,0,1,.647-3.495,7.605,7.605,0,0,1,1.8-2.66,7.877,7.877,0,0,1,2.744-1.69,10.527,10.527,0,0,1,6.938,0,7.9,7.9,0,0,1,2.744,1.69,7.605,7.605,0,0,1,1.8,2.66,9.076,9.076,0,0,1,.647,3.495,9.087,9.087,0,0,1-.647,3.495,7.647,7.647,0,0,1-1.8,2.66,7.971,7.971,0,0,1-2.744,1.69,10.433,10.433,0,0,1-6.938,0,7.95,7.95,0,0,1-2.744-1.69,7.647,7.647,0,0,1-1.8-2.66A9.087,9.087,0,0,1,15.5,19.57Zm3.672,0a5.874,5.874,0,0,0,.355,2.087,4.726,4.726,0,0,0,1.043,1.638,4.59,4.59,0,0,0,1.575,1.043,5.644,5.644,0,0,0,4.1,0,4.611,4.611,0,0,0,1.575-1.043,4.768,4.768,0,0,0,1.043-1.638,6.26,6.26,0,0,0,0-4.173,4.58,4.58,0,0,0-2.587-2.723,5.675,5.675,0,0,0-4.1,0,4.58,4.58,0,0,0-2.587,2.723,5.9,5.9,0,0,0-.438,2.087Z" transform="translate(0.671 0.482)" fill="#151e28"/>
    <path id="Trazado_52" data-name="Trazado 52" d="M53.329,26.464a12.582,12.582,0,0,1-3.265,1.221,16.473,16.473,0,0,1-3.474.365,9.869,9.869,0,0,1-3.474-.595,7.96,7.96,0,0,1-2.744-1.69,7.626,7.626,0,0,1-1.8-2.66,9.066,9.066,0,0,1-.647-3.495,9.045,9.045,0,0,1,.647-3.495,7.585,7.585,0,0,1,1.8-2.66,7.887,7.887,0,0,1,2.744-1.69,9.921,9.921,0,0,1,3.474-.584,12.905,12.905,0,0,1,3.547.459,7,7,0,0,1,2.848,1.6l-2.462,2.681A5.018,5.018,0,0,0,48.9,14.779a5.832,5.832,0,0,0-2.264-.386,5.216,5.216,0,0,0-2.087.386,4.674,4.674,0,0,0-1.575,1.043,4.726,4.726,0,0,0-1.043,1.648,6.26,6.26,0,0,0,0,4.173,4.768,4.768,0,0,0,1.043,1.638,4.6,4.6,0,0,0,1.575,1.043,5.216,5.216,0,0,0,2.087.386,6.771,6.771,0,0,0,1.993-.261,7.72,7.72,0,0,0,1.335-.532V21.31H47.049V18.076h6.26Z" transform="translate(1.641 0.484)" fill="#151e28"/>
    <path id="Trazado_53" data-name="Trazado 53" d="M62.15,11.53h3.537V27.586H62.15Z" transform="translate(2.689 0.499)" fill="#151e28"/>
    <path id="Trazado_54" data-name="Trazado 54" d="M85.683,15.72a3.484,3.484,0,0,0-1.262-.981,4.288,4.288,0,0,0-1.763-.334,4.423,4.423,0,0,0-1.847.386,4.486,4.486,0,0,0-1.471,1.043,5.008,5.008,0,0,0-.97,1.648,6.26,6.26,0,0,0,0,4.173,5.216,5.216,0,0,0,.96,1.638,4.35,4.35,0,0,0,1.44,1.043,4.173,4.173,0,0,0,1.784.386,3.985,3.985,0,0,0,1.867-.438,3.86,3.86,0,0,0,1.388-1.273l2.952,2.2A6.155,6.155,0,0,1,86.173,27.3a8,8,0,0,1-3.224.678,9.869,9.869,0,0,1-3.474-.595,7.95,7.95,0,0,1-2.744-1.69,7.658,7.658,0,0,1-1.8-2.66,9.087,9.087,0,0,1-.647-3.495,9.065,9.065,0,0,1,.647-3.495,7.606,7.606,0,0,1,1.8-2.66,7.877,7.877,0,0,1,2.786-1.659,9.932,9.932,0,0,1,3.474-.584,8.534,8.534,0,0,1,1.419.125,7.626,7.626,0,0,1,1.45.4,6.416,6.416,0,0,1,1.367.73,5.414,5.414,0,0,1,1.179,1.116Z" transform="translate(3.214 0.482)" fill="#151e28"/>
    <path id="Trazado_55" data-name="Trazado 55" d="M96.95,11.53h2.243L105.046,25,110.9,11.53h2.087V27.586h-1.492V13.429h0l-6.145,14.157h-.657l-6.26-14.147h0V27.586H96.95Z" transform="translate(4.195 0.499)" fill="#151e28"/>
    <path id="Trazado_56" data-name="Trazado 56" d="M121.641,11.53h9.817v1.356h-8.346v5.707h7.8v1.356h-7.8v6.26h8.69v1.356H121.62Z" transform="translate(5.262 0.499)" fill="#151e28"/>
    <path id="Trazado_57" data-name="Trazado 57" d="M140.62,11.53h1.5V26.219h7.48v1.356H140.62Z" transform="translate(6.084 0.499)" fill="#151e28"/>
    <path id="Trazado_58" data-name="Trazado 58" d="M155.27,19.57a9.087,9.087,0,0,1,.616-3.38,8.075,8.075,0,0,1,1.7-2.66,7.73,7.73,0,0,1,2.619-1.753,9.243,9.243,0,0,1,6.74,0,7.731,7.731,0,0,1,2.65,1.753,8.054,8.054,0,0,1,1.669,2.681,9.671,9.671,0,0,1,0,6.771,7.949,7.949,0,0,1-1.669,2.619,7.553,7.553,0,0,1-2.619,1.742,9.389,9.389,0,0,1-6.739,0,7.553,7.553,0,0,1-2.65-1.742,7.971,7.971,0,0,1-1.7-2.671,9.149,9.149,0,0,1-.616-3.359Zm1.492,0a8.022,8.022,0,0,0,.48,2.786A6.635,6.635,0,0,0,158.6,24.6a6.364,6.364,0,0,0,2.139,1.492,7.6,7.6,0,0,0,5.644,0,6.323,6.323,0,0,0,2.17-1.481,6.635,6.635,0,0,0,1.367-2.243,8.419,8.419,0,0,0,0-5.581,6.635,6.635,0,0,0-1.367-2.243,6.26,6.26,0,0,0-2.16-1.461,7.6,7.6,0,0,0-5.644,0,6.26,6.26,0,0,0-2.139,1.492,6.635,6.635,0,0,0-1.356,2.243,8,8,0,0,0-.48,2.754Z" transform="translate(6.718 0.482)" fill="#151e28"/>
    <path id="Trazado_59" data-name="Trazado 59" d="M179.18,11.53h1.9l9.807,14.053h0V11.53h1.492V27.586h-1.909l-9.775-14.063h0V27.586h-1.5Z" transform="translate(7.752 0.499)" fill="#151e28"/>
    <path id="Trazado_60" data-name="Trazado 60" d="M241.615,20.145a20,20,0,0,1-1.429,7.459l-2.493-1.043A17.454,17.454,0,0,0,221.48,2.681V0a20,20,0,0,1,7.459,1.429,20.3,20.3,0,0,1,11.038,10.756A19.989,19.989,0,0,1,241.615,20.145Z" transform="translate(9.582 0)" fill="#6cc04a"/>
    <path id="Trazado_61" data-name="Trazado 61" d="M238.933,20.034a17.458,17.458,0,0,1-10.558,16.035L227.332,33.6A14.773,14.773,0,0,0,221.5,5.262V2.57a17.464,17.464,0,0,1,17.454,17.454Z" transform="translate(9.583 0.111)" fill="#acdb90"/>
    <path id="Trazado_62" data-name="Trazado 62" d="M236.469,19.923A14.773,14.773,0,0,1,216.23,33.642l1.043-2.5a12.083,12.083,0,0,0,8.941-22.451,11.935,11.935,0,0,0-4.476-.866V5.15a14.773,14.773,0,0,1,14.773,14.773Z" transform="translate(9.355 0.223)" fill="#ff4f69"/>
    <path id="Trazado_63" data-name="Trazado 63" d="M234.032,19.811a11.883,11.883,0,0,1-.866,4.476,12.1,12.1,0,0,1-22.326.3l2.462-1.043a9.576,9.576,0,0,0,1.993,2.932A9.395,9.395,0,1,0,221.9,10.4V7.72a11.935,11.935,0,0,1,4.476.866A12.1,12.1,0,0,1,233,15.033a11.956,11.956,0,0,1,1.033,4.778Z" transform="translate(9.122 0.334)" fill="#ff3957"/>
    <path id="Trazado_64" data-name="Trazado 64" d="M231.271,19.7a9.431,9.431,0,0,1-16.087,6.635,9.577,9.577,0,0,1-1.993-2.932,9.39,9.39,0,0,1-.762-3.714,9.242,9.242,0,0,1,.678-3.473,9.389,9.389,0,0,1,5.008-5.155l1.043,2.473a6.725,6.725,0,0,0-3.505,8.816,6.855,6.855,0,0,0,1.419,2.087,6.8,6.8,0,1,0,4.747-11.455V10.3a9.545,9.545,0,0,1,9.452,9.4Z" transform="translate(9.191 0.446)" fill="#ff2344"/>
    <path id="Trazado_65" data-name="Trazado 65" d="M228.142,26.368l.709.981a.439.439,0,1,0,.626-.616l-.949-.741a.271.271,0,0,0-.386.376Z" transform="translate(9.868 1.122)" fill="#222221"/>
    <path id="Trazado_66" data-name="Trazado 66" d="M231.012,19.579l1.189.188a.438.438,0,0,0,0-.876l-1.2.146a.271.271,0,1,0,.01.542Z" transform="translate(9.983 0.817)" fill="#222221"/>
    <path id="Trazado_67" data-name="Trazado 67" d="M228.41,12.721l.981-.709a.443.443,0,0,0-.616-.636l-.741.949a.271.271,0,1,0,.376.386Z" transform="translate(9.861 0.487)" fill="#222221"/>
  </g>
</svg>
