<?xml version="1.0" encoding="UTF-8"?>
<svg id="Capa_1" data-name="Capa 1" xmlns="http://www.w3.org/2000/svg" viewBox="0 0 721.41 263">
  <defs>
    <style>
      .cls-1 {
        fill: #fff;
      }
    </style>
  </defs>
  <path class="cls-1" d="M453.63,200.27c-3.67,8.48-8.01,16.28-13.05,23.46-6.86,9.78-12.48,16.55-16.81,20.31-6.71,6.17-13.9,9.33-21.6,9.51-5.52,0-12.19-1.57-19.95-4.77-7.78-3.18-14.94-4.75-21.48-4.75s-14.22,1.57-22.08,4.75c-7.88,3.19-14.23,4.85-19.09,5.02-7.38,.32-14.74-2.94-22.08-9.77-4.69-4.09-10.55-11.1-17.58-21.03-7.54-10.61-13.73-22.9-18.59-36.92-5.2-15.14-7.8-29.8-7.8-44,0-16.26,3.51-30.29,10.55-42.04,5.53-9.44,12.89-16.89,22.1-22.36,9.21-5.47,19.16-8.25,29.88-8.43,5.87,0,13.56,1.82,23.11,5.38,9.53,3.58,15.65,5.39,18.33,5.39,2.01,0,8.8-2.12,20.32-6.35,10.9-3.92,20.09-5.54,27.62-4.9,20.41,1.65,35.75,9.69,45.95,24.19-18.26,11.06-27.29,26.56-27.11,46.43,.16,15.48,5.78,28.36,16.82,38.6,5,4.75,10.59,8.42,16.81,11.03-1.35,3.91-2.77,7.66-4.28,11.25h0ZM406.81,16.03c0,12.14-4.43,23.47-13.27,33.95-10.67,12.47-23.56,19.67-37.55,18.53-.18-1.46-.28-2.99-.28-4.6,0-11.65,5.07-24.12,14.08-34.31,4.49-5.16,10.22-9.45,17.15-12.87,6.92-3.37,13.47-5.24,19.62-5.55,.18,1.62,.26,3.25,.26,4.85h0Z"/>
</svg>