<?xml version="1.0" encoding="UTF-8"?>
<svg id="Capa_1" data-name="Capa 1" xmlns="http://www.w3.org/2000/svg" viewBox="0 0 721.41 263">
  <defs>
    <style>
      .cls-1 {
        fill: #fff;
      }
    </style>
  </defs>
  <g id="Capa_2" data-name="Capa 2">
    <g id="Capa_1-2" data-name="Capa 1-2">
      <path class="cls-1" d="M267.44,179.39c-18.42,.02-33.33,14.97-33.31,33.39,.02,18.42,14.97,33.33,33.39,33.31,18.4-.02,33.31-14.95,33.31-33.35-.04-18.42-14.97-33.33-33.39-33.35"/>
      <path class="cls-1" d="M174.19,179.39c-18.42,0-33.35,14.93-33.35,33.35s14.93,33.35,33.35,33.35,33.35-14.93,33.35-33.35h0c-.04-18.4-14.95-33.31-33.35-33.35"/>
      <path class="cls-1" d="M360.7,179.39c-18.42,0-33.35,14.93-33.35,33.35s14.93,33.35,33.35,33.35,33.35-14.93,33.35-33.35c-.04-18.4-14.95-33.31-33.35-33.35"/>
      <path class="cls-1" d="M547.2,179.39c-18.42,0-33.35,14.95-33.33,33.37,0,18.42,14.95,33.35,33.37,33.33,18.42,0,33.33-14.93,33.33-33.35-.04-18.42-14.95-33.33-33.37-33.35"/>
      <path class="cls-1" d="M453.95,179.39c-18.42,0-33.35,14.93-33.35,33.35s14.93,33.35,33.35,33.35,33.35-14.93,33.35-33.35h0c-.04-18.4-14.95-33.31-33.35-33.35"/>
      <path class="cls-1" d="M135.81,84.86c0-21.68,17.4-38.02,38.83-38.02s38.83,16.3,38.83,37.85v33.29c.12,3.06-2.24,5.64-5.3,5.77h-.63c-2.99,.24-5.64-1.98-5.91-4.99-.02-.26-.02-.53,0-.77v-9.74h-.63c-4.54,7.78-13.69,14.63-27.18,14.63-20.72,.29-37.73-16.28-38.02-37v-1.02m66.19,0c.33-14.79-11.39-27.03-26.16-27.36h-1.2c-14.79-.33-27.03,11.39-27.36,26.16v1.2c-.33,14.79,11.39,27.03,26.16,27.36h1.2c14.79,.33,27.03-11.39,27.36-26.16v-1.2m41.78,62.59c-3.08-1.51-4.56-4.07-3.36-7.19,.67-2.67,3.38-4.26,6.05-3.59,.41,.1,.81,.26,1.18,.47,5.95,2.77,12.41,4.24,18.97,4.28,17.54,.04,28.09-10.39,28.09-28.22v-4.89h-.61c-4.54,7.8-13.65,14.57-27.18,14.57-20.76,.26-37.83-16.34-38.1-37.12v-.88c0-21.68,17.4-38.02,38.83-38.02s38.83,16.3,38.83,37.85v27.65c0,23.84-15.28,39.89-40.32,39.89-7.74,.1-15.4-1.53-22.41-4.81m51.26-62.59c0-15.12-12.26-27.36-27.36-27.36s-27.36,12.24-27.36,27.36,12.26,27.36,27.36,27.36,27.36-12.24,27.36-27.36m26.77,0c0-21.68,17.24-38.02,38.83-38.02s38.83,16.3,38.83,38.02-17.13,38.02-38.83,38.02-38.83-16.3-38.83-38.02m66.27,0c0-15.12-12.24-27.36-27.36-27.36s-27.36,12.24-27.36,27.36h0c0,15.12,12.24,27.38,27.36,27.38s27.36-12.24,27.36-27.36h0m26.75,0c-.2-20.8,16.48-37.81,37.28-38.02h.79c13.57,0,22.65,6.74,27.22,14.55h.61V22.68c-.12-3.06,2.26-5.64,5.32-5.75h.59c2.99-.26,5.64,1.96,5.91,4.95,.02,.26,.02,.53,0,.81v62.22c0,21.66-17.24,37.95-38.83,37.95s-38.81-16.3-38.81-38.02m66.27,0c0-15.12-12.24-27.36-27.36-27.36s-27.36,12.24-27.36,27.36h0c0,15.12,12.24,27.38,27.36,27.38s27.36-12.24,27.36-27.36h0m26.77,0c0-21.68,17.38-38.02,38.83-38.02s38.83,16.3,38.83,37.85v33.29c.12,3.06-2.24,5.64-5.3,5.77h-.63c-3.02,.24-5.66-2-5.91-5.01-.02-.24-.02-.51,0-.75v-9.74h-.59c-4.58,7.78-13.73,14.55-27.22,14.55-20.72,.26-37.73-16.34-38-37.06v-.88m66.19,0c0-15.12-12.26-27.36-27.36-27.36s-27.36,12.24-27.36,27.36,12.26,27.36,27.36,27.36,27.36-12.24,27.36-27.36"/>
    </g>
  </g>
</svg>