<?xml version="1.0" encoding="UTF-8"?>
<svg id="Capa_1" data-name="Capa 1" xmlns="http://www.w3.org/2000/svg" viewBox="0 0 721.41 263">
  <defs>
    <style>
      .cls-1 {
        fill: #fff;
        fill-rule: evenodd;
      }
    </style>
  </defs>
  <g id="Clip-Path:_Page_1" data-name="Clip-Path: Page 1">
    <g id="Page_1" data-name="Page 1">
      <path id="Path_27" data-name="Path 27" class="cls-1" d="M287.86,183.37v13.97c0,1.55-1.26,2.78-2.81,3.1-29.46,2.17-55.2-15.81-55.2-48.08V41.37c0-1.55,1.26-3.1,3.1-3.1h15.52c1.55,0,2.78,1.55,2.78,3.1v27.59c0,.32,.32,.61,.94,.61h17.37c1.55,0,2.78,1.23,2.78,2.78v14.91c0,1.55-1.23,2.78-2.78,2.78h-17.37c-.62,0-.94,.31-.94,.94v61.38c0,21.73,17.98,28.23,33.5,27.91,1.55,0,3.1,1.55,3.1,3.1h0Zm133.01-47.73c0,2.78-1.84,4.63-4.66,4.63h-100.77c-.32,0-.94,.64-.61,.94,2.78,25.45,22.93,40.62,43.4,40.62,17.07,0,29.17-7.73,36.28-20.76,.94-1.55,2.49-2.49,4.04-2.49h15.2c2.17,0,3.4,2.17,2.78,4.04-9.61,24.48-30.69,37.84-58.3,37.84-36.28,0-64.81-28.52-64.81-65.45s28.52-66.04,63.58-66.04c31.63,0,62.02,25.13,63.87,66.68h0Zm-23.25-14.58c-5.59-20.15-22.31-33.18-40.62-33.18-17.07,0-35.35,12.09-40.94,33.18,0,.32,.32,.94,.61,.94h80c.61,0,.94-.61,.94-.94Zm157.23,41.55c-9.31,23.25-30.72,37.84-57.37,37.84-34.73,0-63.25-29.17-63.25-65.45s28.52-66.04,63.25-66.04c26.65,0,47.73,14.88,57.37,37.84,.91,2.17-.61,4.01-2.81,4.01h-15.49c-1.55,0-3.1-.61-3.72-2.17-7.44-12.39-19.85-20.47-35.35-20.47-23.25,0-42.49,21.11-42.49,46.83s19.24,46.53,42.49,46.53c15.81,0,28.2-8.08,35.35-20.47,.94-1.55,2.17-2.49,3.72-2.49h15.49c2.2,0,3.72,2.17,2.81,4.04Zm-335.22,20.76v13.97c0,1.55-1.23,2.78-2.78,3.1-29.17,2.17-54.91-15.81-54.91-48.08V22.46c0-1.55,1.26-3.1,2.81-3.1h15.49c1.87,0,3.1,1.55,3.1,3.1v23.87c0,.61,.32,.94,.61,.94h17.37c1.55,0,3.1,1.23,3.1,2.78v16.14c0,1.55-1.55,2.78-3.1,2.78h-17.37c-.29,0-.61,.32-.61,.94v82.46c0,21.73,18.3,28.23,33.5,27.91,1.55,0,2.78,1.55,2.78,3.1h0ZM127.85,50.19c0-1.64,1.29-2.93,2.93-2.93h15.84c1.61,0,2.93,1.29,2.93,2.93v15.84c0,1.61-1.32,2.93-2.93,2.93h-15.84c-1.64,0-2.93-1.32-2.93-2.93,0,0,0-15.84,0-15.84Zm91.45,174.74v13.35c0,1.55-.91,2.78-2.78,2.78-8.99,.61-41.85,.94-61.09-12.71-6.82-4.95-12.09-9.61-16.14-15.2-8.38-11.48-10.84-22.02-11.45-27.29-.32-1.55,.91-3.1,2.78-3.1h15.2c1.23,0,2.46,.94,2.78,2.17,1.55,5.3,6.5,19.24,19.85,27.29,15.81,9.63,38.74,10.25,48.06,9.93,1.55-.29,2.78,1.26,2.78,2.78h0ZM567.55,91.3c-5.51,0-9.93-4.45-9.93-9.93s4.42-9.93,9.93-9.93,9.93,4.42,9.93,9.93-4.45,9.93-9.93,9.93h0Zm8.05-10.1c0-4.71-3.66-8.52-8.2-8.52s-8.23,3.81-8.23,8.52,3.66,8.55,8.23,8.55,8.2-3.84,8.2-8.55Zm-6.21,.79l2.49,4.04h-1.84l-2.2-3.72h-1.84v3.72h-1.87v-9.63h3.43c2.48,0,3.72,.94,3.72,2.81,0,1.55-.61,2.17-1.87,2.46v.32h0Zm0-2.46c0-.94-.29-1.55-1.84-1.55h-1.55v3.1h1.55c1.55,0,1.84-.64,1.84-1.55Z"/>
    </g>
  </g>
</svg>