<svg xmlns="http://www.w3.org/2000/svg" xmlns:xlink="http://www.w3.org/1999/xlink" width="109" height="109" viewBox="0 0 109 109">
  <defs>
    <clipPath id="clip-path">
      <rect id="Rectángulo_105" data-name="Rectángulo 105" width="60.157" height="74.881" fill="none"/>
    </clipPath>
  </defs>
  <g id="Grupo_27" data-name="Grupo 27" transform="translate(-1262 -897)">
    <circle id="Elipse_1" data-name="Elipse 1" cx="54.5" cy="54.5" r="54.5" transform="translate(1262 897)" fill="#f9a825"/>
    <circle id="Elipse_2" data-name="Elipse 2" cx="54.5" cy="54.5" r="54.5" transform="translate(1262 897)" fill="#f9a825"/>
    <g id="Grupo_26" data-name="Grupo 26" transform="translate(1280 915.786)">
      <g id="Grupo_25" data-name="Grupo 25" transform="translate(0 0)" clip-path="url(#clip-path)">
        <path id="Trazado_68" data-name="Trazado 68" d="M53.31,2.024A3.276,3.276,0,0,0,49.032.25C38.132,4.759,27.827,9.579,21.364,19a44.605,44.605,0,0,0-6.676,16.854C7.317,39.446,0,54.254,0,54.254s4.368,1.368,8.466,2.476a55.933,55.933,0,0,0,5.679,1.315c.291,2.239.647,4.379,1.088,6.344A3.315,3.315,0,0,0,17.172,66.7L28.8,71.515a3.271,3.271,0,0,0,2.508,0c.167-.07,3.976-2.592,5.758-3.977.543.409,1.3.9,2.164,1.442,4.015,2.491,10.519,5.9,10.519,5.9s5.308-15.641,2.63-23.393a44.418,44.418,0,0,0,7.208-16.636c2.1-11.219-1.949-22.379-6.275-32.83M39.1,36.147a6.162,6.162,0,0,1-.628-.032c.208.016.416.032.628.032s.42-.016.628-.032a6.162,6.162,0,0,1-.628.032" transform="translate(0 0)" fill="#fff"/>
        <path id="Trazado_69" data-name="Trazado 69" d="M52.241,22.339A12.416,12.416,0,1,0,64.657,34.756,12.416,12.416,0,0,0,52.241,22.339m0,21.374A8.957,8.957,0,1,1,61.2,34.756a8.957,8.957,0,0,1-8.958,8.957" transform="translate(-11.758 -6.595)" fill="#f9ab25"/>
        <path id="Trazado_70" data-name="Trazado 70" d="M17.84,47.869S29.066,74.32,60.463,65.621" transform="translate(-5.267 -14.132)" fill="none" stroke="#f9ab25" stroke-miterlimit="10" stroke-width="5"/>
      </g>
    </g>
  </g>
</svg>
