<?xml version="1.0" encoding="UTF-8"?>
<svg id="Capa_1" data-name="Capa 1" xmlns="http://www.w3.org/2000/svg" viewBox="0 0 721.41 263">
  <defs>
    <style>
      .cls-1 {
        fill: #fff;
      }
    </style>
  </defs>
  <path class="cls-1" d="M200.26,104.44c.82,0,1.85,.11,2.6,.21,1.54,.05,3.02-.51,4.16-1.6,1.13-1.1,1.79-2.63,1.79-4.21,0-2.93-2.11-5.42-4.87-5.81-2.03-.36-4.16-.53-6.49-.53-5.59,0-9.8,1.49-12.87,4.57-3.1,3.1-4.67,7.82-4.67,14.03v3.51h-1.62c-3.26,0-5.92,2.65-5.92,5.92s2.65,5.82,5.92,5.82h1.62v38.07c0,3.79,3.07,6.86,6.86,6.86s6.97-3.07,6.97-6.86v-38.07h9.05c3.26,0,5.91-2.61,5.91-5.82s-2.6-5.82-5.91-5.82h-9.26v-2.45c0-5.32,2.15-7.8,6.76-7.8"/>
  <path class="cls-1" d="M223.64,142.4c0-9.86,6.76-17.02,16.07-17.02s16.39,7.4,16.39,17.23v.21c0,9.8-6.81,16.92-16.18,16.92s-16.28-7.52-16.28-17.13v-.21h0Zm16.28-29.28c-16.89,0-30.11,12.96-30.11,29.48v.21c0,16.36,13.14,29.18,29.9,29.18s30.22-12.91,30.22-29.39v-.21c0-16.42-13.18-29.28-30.01-29.28"/>
  <path class="cls-1" d="M322.43,113.65c-3.91,0-6.97,3.06-6.97,6.97v25.45c0,8.05-4.55,13.04-11.89,13.04s-11.26-4.55-11.26-12.83v-25.67c0-3.91-3.06-6.97-6.97-6.97s-6.86,3.13-6.86,6.97v29.43c0,13.47,7.77,21.84,20.27,21.84,6.82,0,12.3-2.8,16.71-8.54v1.04c0,3.79,3.13,6.86,6.97,6.86s6.97-3.07,6.97-6.86v-43.77c0-3.84-3.13-6.97-6.97-6.97h0Z"/>
  <path class="cls-1" d="M372.03,113.12c-6.78,0-12.27,2.77-16.71,8.46v-.96c0-3.91-3.06-6.97-6.97-6.97s-6.86,3.06-6.86,6.97v43.78c0,3.85,3.01,6.86,6.86,6.86s6.97-3.01,6.97-6.86v-25.45c0-7.98,4.67-13.14,11.89-13.14s11.26,4.71,11.26,12.93v25.67c0,3.85,3.06,6.86,6.97,6.86s6.86-2.96,6.86-6.86v-29.53c0-13.41-7.77-21.73-20.27-21.73"/>
  <path class="cls-1" d="M445.78,142.4v.21c0,8.42-5.78,17.13-15.45,17.13-8.75,0-15.35-7.36-15.35-17.13v-.21c0-10.08,6.31-17.13,15.35-17.13s15.45,7.36,15.45,17.13Zm6.65-49.8c-3.85,0-6.86,3.01-6.86,6.86v22.34c-4.91-5.83-10.91-8.67-18.28-8.67-13.04,0-26.25,10.05-26.25,29.28v.21c0,8.74,2.81,16.2,8.13,21.63,4.76,4.86,11.37,7.65,18.12,7.65,7.4,0,13.39-3.01,18.28-9.21v1.72c0,3.85,3.06,6.86,6.97,6.86s6.86-3.01,6.86-6.86V99.46c0-3.85-3.06-6.86-6.97-6.86h0Z"/>
  <path class="cls-1" d="M482.39,138.05c1.33-8.17,6.64-13.41,13.68-13.41,8.59,0,12.52,6.81,13.38,13.41h-27.06Zm13.79-24.93c-15.73,0-27.6,12.63-27.6,29.39v.21c0,16.97,12.18,29.28,28.96,29.28,8.04,0,14.67-2.44,20.31-7.5,1.19-1.19,1.85-2.71,1.85-4.29,0-3.26-2.41-5.71-5.61-5.71-1.64,0-2.59,.49-3.62,1.28-3.83,3.15-8,4.68-12.72,4.68-7.98,0-13.76-4.92-15.24-12.88h33.99c3.67,0,6.54-2.92,6.54-6.65,0-13.49-9.42-27.8-26.87-27.8"/>
  <path class="cls-1" d="M573.87,113.65c-2.96,0-5.15,1.6-6.51,4.76l-13.92,35.5-13.71-35.28c-1.35-3.35-3.58-4.97-6.82-4.97-3.66,0-6.86,3.11-6.86,6.65,0,1.1,.34,2.08,.63,2.94l18.58,42.63c1.72,3.91,4.31,5.9,7.76,5.9h.63c3.34,0,6.02-2.03,7.76-5.9l18.42-42.29c.29-.59,.79-1.95,.79-3.3,0-3.73-2.97-6.65-6.76-6.65"/>
  <path class="cls-1" d="M597.33,138.05c1.33-8.17,6.65-13.41,13.68-13.41,8.59,0,12.52,6.81,13.38,13.41h-27.06Zm13.79-24.93c-15.73,0-27.6,12.63-27.6,29.39v.21c0,16.97,12.18,29.28,28.96,29.28,8.04,0,14.67-2.44,20.31-7.5,1.19-1.19,1.85-2.71,1.85-4.29,0-3.26-2.41-5.71-5.61-5.71-1.64,0-2.59,.49-3.62,1.28-3.83,3.15-8,4.68-12.72,4.68-7.98,0-13.76-4.92-15.24-12.88h33.99c3.67,0,6.54-2.92,6.54-6.65,0-13.49-9.42-27.8-26.87-27.8"/>
  <path class="cls-1" d="M674.44,113.54c-4.88,0-10.04,4-13.35,10.19v-3.11c0-3.91-3.06-6.97-6.97-6.97s-6.86,3.06-6.86,6.97v43.78c0,3.85,3.01,6.86,6.86,6.86s6.97-3.07,6.97-6.86v-16.34c0-11.89,5.23-19.36,14.71-21.01,3.34-.62,5.5-3.22,5.5-6.64,0-4.17-2.69-6.86-6.86-6.86"/>
  <path class="cls-1" d="M694.31,101.69h-2.19c-.55,0-1.02-.46-1.02-1.02s.46-1.02,1.02-1.02h6.66c.55,0,1.02,.46,1.02,1.02s-.45,1.02-1.02,1.02h-2.19v7.09c0,.62-.53,1.13-1.15,1.13s-1.15-.51-1.15-1.13v-7.09h.01Z"/>
  <path class="cls-1" d="M701.95,100.65c0-.62,.49-1.11,1.11-1.11h.26c.46,0,.82,.26,1.02,.59l2.64,4.34,2.71-4.34c.22-.4,.51-.59,.98-.59h.26c.58,0,1.08,.49,1.08,1.11v8.19c0,.59-.49,1.08-1.08,1.08s-1.08-.49-1.08-1.08v-5.25l-1.95,3.03c-.22,.36-.49,.58-.91,.58s-.69-.2-.95-.58l-1.93-2.97v5.19c0,.59-.49,1.08-1.08,1.08s-1.08-.49-1.08-1.08v-8.19h.01Z"/>
  <path class="cls-1" d="M57.31,98.84c-4.29,0-7.77,3.48-7.77,7.77v36.42c0,3.23,1.25,6.25,3.54,8.54s5.32,3.54,8.54,3.54,6.25-1.25,8.54-3.54l32.12-32.12c2.28-2.28,3.54-5.32,3.54-8.54s-1.25-6.25-3.54-8.55c-2.28-2.28-5.32-3.54-8.54-3.54H57.31Zm4.3,63.18c-5.05,0-9.82-1.97-13.39-5.54-3.58-3.58-5.54-8.34-5.54-13.39v-36.42c0-8.06,6.56-14.63,14.63-14.63h36.42c5.05,0,9.82,1.97,13.39,5.56,3.58,3.58,5.54,8.33,5.54,13.39s-1.97,9.82-5.54,13.39l-32.12,32.12c-3.58,3.58-8.33,5.54-13.39,5.54"/>
  <path class="cls-1" d="M31.04,120.05c-1.9,0-3.43-1.53-3.43-3.43v-10c0-16.39,13.33-29.72,29.72-29.72h35.94c4.42,0,8.75,.82,12.89,2.43,1.77,.69,2.64,2.67,1.95,4.43s-2.67,2.64-4.43,1.95c-3.29-1.28-6.89-1.95-10.4-1.95H57.34c-12.6,0-22.85,10.25-22.85,22.85v10c0,1.89-1.53,3.43-3.43,3.43m73.7,26.31c-.9,0-1.78-.34-2.45-1.04-1.32-1.36-1.29-3.52,.07-4.84l10.65-10.37c9.16-9.16,10.54-23.63,3.27-34.39-1.07-1.57-.65-3.69,.92-4.76,1.57-1.07,3.71-.65,4.76,.92,9.12,13.47,7.38,31.6-4.13,43.11l-10.68,10.4c-.67,.65-1.53,.98-2.39,.98m-82.91,22.62c-1.2,0-2.36-.62-2.98-1.74-.37-.65-.71-1.29-1.06-1.95-1.28-2.51-2.35-5.15-3.17-7.85-.87-2.84-1.36-5.94-1.52-9.45l-.62-14.34v-27.02c0-24.7,20.1-44.8,44.8-44.8h8.38c1.89,0,3.43,1.53,3.43,3.43s-1.53,3.43-3.43,3.43h-8.38c-20.91,0-37.94,17.02-37.94,37.94v26.88l.61,14.2c.12,2.93,.53,5.46,1.23,7.75,.71,2.32,1.62,4.58,2.72,6.74,.29,.57,.59,1.13,.91,1.69,.94,1.65,.36,3.73-1.29,4.67-.54,.3-1.11,.45-1.69,.45m39.77,8.08c-9.09,0-17.63-3.54-24.06-9.96-6.43-6.43-9.96-14.96-9.96-24.06v-8.48c0-1.89,1.53-3.43,3.43-3.43s3.43,1.53,3.43,3.43v8.48c0,7.26,2.82,14.08,7.96,19.21,5.13,5.12,11.94,7.94,19.21,7.94s14.08-2.82,19.21-7.94l8.87-8.87c1.33-1.35,3.51-1.35,4.84,0,1.33,1.33,1.33,3.51,0,4.84l-8.87,8.87c-6.41,6.43-14.96,9.96-24.06,9.96m.11,15.1c-3.33,0-6.69-.33-10.08-.99-6.12-1.2-12.09-3.69-17.26-7.22-.69-.46-1.27-.96-1.85-1.46-.28-.24-.54-.48-.84-.7-1.49-1.17-1.75-3.33-.58-4.82,1.17-1.49,3.33-1.76,4.82-.58,.38,.3,.74,.61,1.1,.91,.38,.33,.77,.67,1.21,.98,4.42,3.01,9.5,5.13,14.73,6.16,14.36,2.82,28.4-1.37,38.53-11.52l31.23-31.23c8.25-8.25,12.94-18.78,13.22-29.62,.32-12.22-4.41-23.55-13.29-31.92-7.85-7.39-18.57-11.45-30.18-11.45h-8.83c-1.89,0-3.43-1.53-3.43-3.43s1.53-3.44,3.43-3.44h8.83c13.35,0,25.74,4.74,34.88,13.31,10.33,9.73,15.81,22.89,15.45,37.09-.33,12.61-5.74,24.79-15.24,34.3l-31.23,31.23c-9.38,9.38-21.63,14.38-34.62,14.38"/>
</svg>